<svg xmlns="http://www.w3.org/2000/svg" viewBox="0 0 210 297" height="297mm" width="210mm"><g stroke="#000" stroke-width=".265"><path d="M147.094 46.122h6.415v2.94h-6.415z" fill="red"/><path d="M158.453 45.186h6.415v2.94h-6.415z" fill="red"/><path d="M169.01 44.652h6.415v2.94h-6.415z" fill="red"/><path d="M135.334 46.656h6.415v2.94h-6.415z" fill="red"/><path d="M119.966 47.725h6.415v2.94h-6.415z" fill="red"/><path d="M108.875 48.794h6.414v2.94h-6.414z" fill="red"/><path d="M97.783 49.997h6.414v2.94h-6.414z" fill="red"/><path d="M87.36 50.532h6.414v2.94h-6.415z" fill="red"/><path d="M77.07 51.333h6.414v2.94H77.07z" fill="red"/><path d="M66.245 52.135h6.415v2.94h-6.415z" fill="red"/><path d="M64.909 81.668h6.414v2.94H64.91z" fill="red"/><path d="M75.733 81.401h6.415v2.94h-6.415z" fill="red"/><path d="M85.89 81.668h6.414v2.94h-6.415z" fill="red"/><path d="M95.378 81.802h6.414v2.94h-6.414z" fill="red"/><path d="M111.882 88.783l-.136 6.413-2.94-.062.137-6.413z" fill="red"/><path d="M111.615 98.004l-.136 6.413-2.94-.063.137-6.413z" fill="red"/><path d="M139.144 88.516l-.136 6.413-2.94-.063.137-6.413z" fill="red"/><path d="M139.278 98.004l-.137 6.413-2.94-.063.137-6.413z" fill="red"/><path d="M121.57 102.382h6.414v2.94h-6.414z" fill="red"/><path d="M146.292 81.401h6.415v2.94h-6.415z" fill="red"/><path d="M158.052 81.535h6.415v2.94h-6.415z" fill="red"/><path d="M169.545 81.535h6.414v2.94h-6.414z" fill="red"/><path d="M106.533 107.614L1.7 105.723V56.01m206.697 30.814l-.365 21.303-65.78-.514m7.18-41.388c0 5.218-5.457 9.449-12.189 9.449s-12.19-4.23-12.19-9.45c0-5.218 5.458-9.449 12.19-9.449 6.732 0 12.19 4.23 12.19 9.45zm58.965 20.6l-66.713-.379.567 21.167h-35.718l.189-20.978L1.689 85.378l.01-29.367L208.965 39.2z" fill="none"/></g></svg>