<?xml version="1.0" encoding="UTF-8" standalone="no"?>
<svg
   xmlns="http://www.w3.org/2000/svg"
   id="svg1386"
   version="1.1"
   viewBox="0 0 210 297"
   height="297mm"
   width="210mm">
  <defs
     id="defs1380" />
  <metadata
     id="metadata1383">
  </metadata>
  <g
     id="layer1">
    <g
       transform="translate(1.8331763,-53.970807)"
       id="layer1-6">
      <path
         d="m 145.26099,100.09245 h 6.41447 v 2.93997 h -6.41447 z"
         id="capgemini">
        <desc
           id="desc1014">Informatique
Réseaux 
Systèmes d’information
stages
pfe
2A
3A
étranger</desc>
      </path>
      <path
         d="m 156.61993,99.156998 h 6.41447 v 2.939962 h -6.41447 z"
         id="bouygues">
        <desc
           id="desc1012">Informatique
Electronique
Mathématique
Mécanique
Télécommunications
Réseaux 
Systèmes d’information
Systèmes Electroniques Embarqués
Cognitique
stages
pfe
2A
3A
étranger</desc>
      </path>
      
      <path
         d="M 104.6994,161.58482 -0.13363476,159.69354 v -49.71213 m 206.69762476,30.81472 -0.36555,21.30284 -65.78029,-0.51415 m 7.18156,-41.38839 c 0,5.21876 -5.45754,9.4494 -12.18974,9.4494 -6.7322,0 -12.18973,-4.23064 -12.18973,-9.4494 0,-5.21876 5.45752,-9.44941 12.18973,-9.44941 6.73221,0 12.18974,4.23064 12.18974,9.44941 z m 58.96428,20.5997 -66.7128,-0.37798 0.56696,21.16667 H 104.6994 l 0.18899,-20.97768 -105.03275491,-1.25807 0.0107302,-29.36766 L 207.13095,93.171131 Z"
         style="fill:none;stroke:#000000;stroke-width:0.264583px;stroke-linecap:butt;stroke-linejoin:miter;stroke-opacity:1"
         id="path1050" />
    </g>
  </g>
</svg>
